<svg width="28" height="28" viewBox="0 0 28 28" fill="none" xmlns="http://www.w3.org/2000/svg">
<g clip-path="url(#clip0_233_292)">
<path d="M15.7499 14C15.7499 16.5737 17.8429 18.6667 20.4166 18.6667C22.9902 18.6667 25.0832 16.5737 25.0832 14C25.0832 11.4263 22.9902 9.33333 20.4166 9.33333C17.8429 9.33333 15.7499 11.4263 15.7499 14ZM20.4166 11.6667C21.7034 11.6667 22.7499 12.7132 22.7499 14C22.7499 15.2868 21.7034 16.3333 20.4166 16.3333C19.1297 16.3333 18.0832 15.2868 18.0832 14C18.0832 12.7132 19.1297 11.6667 20.4166 11.6667ZM13.9999 9.33333C16.5736 9.33333 18.6666 7.24033 18.6666 4.66667C18.6666 2.093 16.5736 0 13.9999 0C11.4262 0 9.33322 2.093 9.33322 4.66667C9.33322 7.24033 11.4262 9.33333 13.9999 9.33333ZM13.9999 2.33333C15.2867 2.33333 16.3332 3.37983 16.3332 4.66667C16.3332 5.9535 15.2867 7 13.9999 7C12.7131 7 11.6666 5.9535 11.6666 4.66667C11.6666 3.37983 12.7131 2.33333 13.9999 2.33333ZM7.58322 18.6667C10.1569 18.6667 12.2499 16.5737 12.2499 14C12.2499 11.4263 10.1569 9.33333 7.58322 9.33333C5.00955 9.33333 2.91655 11.4263 2.91655 14C2.91655 16.5737 5.00955 18.6667 7.58322 18.6667ZM7.58322 11.6667C8.87006 11.6667 9.91655 12.7132 9.91655 14C9.91655 15.2868 8.87006 16.3333 7.58322 16.3333C6.29639 16.3333 5.24989 15.2868 5.24989 14C5.24989 12.7132 6.29639 11.6667 7.58322 11.6667ZM27.9661 26.7283C28.0244 27.37 27.5507 27.937 26.9091 27.9953C26.8741 27.9977 26.8379 28 26.8029 28C26.2056 28 25.6969 27.5438 25.6421 26.9383C25.5137 25.5162 24.7822 24.1908 23.6342 23.3007C23.6051 23.2773 23.5094 23.2878 23.4476 23.3578L21.2997 25.8463C21.0792 26.103 20.7339 26.3002 20.4166 26.2512C20.0806 26.2512 19.7609 26.1065 19.5392 25.8545L17.3634 23.3742C17.3039 23.3053 17.2082 23.2925 17.1767 23.3182C16.0264 24.2212 15.3206 25.5068 15.1922 26.9395C15.1421 27.4948 14.7104 27.8962 14.1737 27.9673C14.1399 27.9732 14.1107 27.993 14.0757 27.9965C14.0396 27.9988 14.0046 28.0012 13.9696 28.0012C13.9579 28.0012 13.9486 27.9953 13.9381 27.9953C13.9334 27.9953 13.9299 27.9977 13.9252 27.9965C13.9124 27.9965 13.9019 27.9872 13.8891 27.986C13.3279 27.9463 12.8601 27.517 12.8087 26.9395C12.6792 25.4963 11.9664 24.2048 10.8021 23.3018C10.7682 23.2773 10.6737 23.289 10.6154 23.359L8.46756 25.8475C8.24589 26.1053 7.92155 26.2547 7.58439 26.2523C7.24839 26.2523 6.92872 26.1077 6.70706 25.8545L4.53122 23.3742C4.47055 23.3065 4.37489 23.2937 4.34455 23.3193C3.19305 24.2223 2.48722 25.508 2.35889 26.9407C2.30172 27.5823 1.74289 28.0467 1.09189 27.9977C0.450222 27.9393 -0.0234451 27.3723 0.0348882 26.7307C0.219222 24.6808 1.26572 22.7687 2.90489 21.4818C3.92689 20.6815 5.41089 20.8378 6.28472 21.8353L7.57622 23.3077L8.84789 21.8342C9.71706 20.825 11.2034 20.6593 12.2312 21.4585C12.9406 22.008 13.5321 22.68 13.9999 23.4243C14.4619 22.6905 15.0417 22.0278 15.7371 21.4818C16.7567 20.6827 18.2431 20.8367 19.1169 21.8365L20.4084 23.3077L21.6801 21.8342C22.5492 20.825 24.0367 20.6617 25.0622 21.4573C26.7201 22.743 27.7771 24.6645 27.9637 26.7295L27.9661 26.7283Z" fill="white"/>
</g>
<defs>
<clipPath id="clip0_233_292">
<rect width="28" height="28" fill="white"/>
</clipPath>
</defs>
</svg>
