<svg width="63" height="66" viewBox="0 0 63 66" fill="none" xmlns="http://www.w3.org/2000/svg">
<circle cx="61.5" cy="64.5" r="1.5" fill="white"/>
<circle cx="1.5" cy="1.5" r="1.5" fill="white"/>
<circle cx="13.5" cy="1.5" r="1.5" fill="white"/>
<circle cx="25.5" cy="1.5" r="1.5" fill="white"/>
<circle cx="37.5" cy="1.5" r="1.5" fill="white"/>
<circle cx="49.5" cy="1.5" r="1.5" fill="white"/>
<circle cx="61.5" cy="1.5" r="1.5" fill="white"/>
<circle cx="1.5" cy="8.5" r="1.5" fill="white"/>
<circle cx="13.5" cy="8.5" r="1.5" fill="white"/>
<circle cx="25.5" cy="8.5" r="1.5" fill="white"/>
<circle cx="37.5" cy="8.5" r="1.5" fill="white"/>
<circle cx="49.5" cy="8.5" r="1.5" fill="white"/>
<circle cx="61.5" cy="8.5" r="1.5" fill="white"/>
<circle cx="1.5" cy="15.5" r="1.5" fill="white"/>
<circle cx="13.5" cy="15.5" r="1.5" fill="white"/>
<circle cx="25.5" cy="15.5" r="1.5" fill="white"/>
<circle cx="37.5" cy="15.5" r="1.5" fill="white"/>
<circle cx="49.5" cy="15.5" r="1.5" fill="white"/>
<circle cx="61.5" cy="15.5" r="1.5" fill="white"/>
<circle cx="1.5" cy="22.5" r="1.5" fill="white"/>
<circle cx="13.5" cy="22.5" r="1.5" fill="white"/>
<circle cx="25.5" cy="22.5" r="1.5" fill="white"/>
<circle cx="37.5" cy="22.5" r="1.5" fill="white"/>
<circle cx="49.5" cy="22.5" r="1.5" fill="white"/>
<circle cx="61.5" cy="22.5" r="1.5" fill="white"/>
<circle cx="1.5" cy="29.5" r="1.5" fill="white"/>
<circle cx="13.5" cy="29.5" r="1.5" fill="white"/>
<circle cx="25.5" cy="29.5" r="1.5" fill="white"/>
<circle cx="37.5" cy="29.5" r="1.5" fill="white"/>
<circle cx="49.5" cy="29.5" r="1.5" fill="white"/>
<circle cx="61.5" cy="29.5" r="1.5" fill="white"/>
<circle cx="1.5" cy="36.5" r="1.5" fill="white"/>
<circle cx="13.5" cy="36.5" r="1.5" fill="white"/>
<circle cx="25.5" cy="36.5" r="1.5" fill="white"/>
<circle cx="37.5" cy="36.5" r="1.5" fill="white"/>
<circle cx="49.5" cy="36.5" r="1.5" fill="white"/>
<circle cx="61.5" cy="36.5" r="1.5" fill="white"/>
<circle cx="1.5" cy="43.5" r="1.5" fill="white"/>
<circle cx="13.5" cy="43.5" r="1.5" fill="white"/>
<circle cx="25.5" cy="43.5" r="1.5" fill="white"/>
<circle cx="37.5" cy="43.5" r="1.5" fill="white"/>
<circle cx="49.5" cy="43.5" r="1.5" fill="white"/>
<circle cx="61.5" cy="43.5" r="1.5" fill="white"/>
<circle cx="1.5" cy="50.5" r="1.5" fill="white"/>
<circle cx="13.5" cy="50.5" r="1.5" fill="white"/>
<circle cx="25.5" cy="50.5" r="1.5" fill="white"/>
<circle cx="37.5" cy="50.5" r="1.5" fill="white"/>
<circle cx="49.5" cy="50.5" r="1.5" fill="white"/>
<circle cx="61.5" cy="50.5" r="1.5" fill="white"/>
<circle cx="1.5" cy="57.5" r="1.5" fill="white"/>
<circle cx="13.5" cy="57.5" r="1.5" fill="white"/>
<circle cx="25.5" cy="57.5" r="1.5" fill="white"/>
<circle cx="37.5" cy="57.5" r="1.5" fill="white"/>
<circle cx="49.5" cy="57.5" r="1.5" fill="white"/>
<circle cx="61.5" cy="57.5" r="1.5" fill="white"/>
<circle cx="1.5" cy="64.5" r="1.5" fill="white"/>
<circle cx="13.5" cy="64.5" r="1.5" fill="white"/>
<circle cx="25.5" cy="64.5" r="1.5" fill="white"/>
<circle cx="37.5" cy="64.5" r="1.5" fill="white"/>
<circle cx="49.5" cy="64.5" r="1.5" fill="white"/>
</svg>
