<svg width="203" height="43" viewBox="0 0 203 43" fill="none" xmlns="http://www.w3.org/2000/svg">
<path d="M76.56 23.56H78.336C78.3787 23.9547 78.5333 24.312 78.8 24.632C79.0773 24.9413 79.44 25.1867 79.888 25.368C80.3467 25.5387 80.8693 25.624 81.456 25.624C81.9787 25.624 82.4107 25.56 82.752 25.432C83.0933 25.304 83.344 25.128 83.504 24.904C83.6747 24.6693 83.76 24.3973 83.76 24.088C83.76 23.7787 83.6587 23.5387 83.456 23.368C83.264 23.1867 82.9653 23.0373 82.56 22.92C82.1547 22.792 81.6373 22.6693 81.008 22.552C80.4853 22.456 79.9787 22.328 79.488 22.168C78.9973 22.008 78.5547 21.8053 78.16 21.56C77.776 21.3147 77.472 21.016 77.248 20.664C77.024 20.3013 76.912 19.8747 76.912 19.384C76.912 18.8293 77.0667 18.328 77.376 17.88C77.696 17.432 78.1653 17.08 78.784 16.824C79.4027 16.568 80.1547 16.44 81.04 16.44C82.3947 16.44 83.4293 16.7547 84.144 17.384C84.8587 18.0027 85.2053 18.8453 85.184 19.912H83.44C83.408 19.24 83.1627 18.7547 82.704 18.456C82.2453 18.1573 81.664 18.008 80.96 18.008C80.3307 18.008 79.8027 18.12 79.376 18.344C78.9493 18.568 78.736 18.9307 78.736 19.432C78.736 19.6453 78.784 19.832 78.88 19.992C78.9867 20.1413 79.1573 20.28 79.392 20.408C79.6267 20.5253 79.9467 20.6427 80.352 20.76C80.768 20.8667 81.2747 20.984 81.872 21.112C82.384 21.1973 82.864 21.3147 83.312 21.464C83.76 21.6133 84.1493 21.8 84.48 22.024C84.8213 22.248 85.088 22.536 85.28 22.888C85.472 23.24 85.568 23.672 85.568 24.184C85.568 24.7707 85.4187 25.2933 85.12 25.752C84.8213 26.2 84.3627 26.5573 83.744 26.824C83.136 27.08 82.3467 27.208 81.376 27.208C80.64 27.208 79.9947 27.1227 79.44 26.952C78.896 26.7707 78.432 26.5413 78.048 26.264C77.664 25.976 77.3547 25.6667 77.12 25.336C76.896 25.0053 76.736 24.6853 76.64 24.376C76.5547 24.056 76.528 23.784 76.56 23.56ZM98.3791 23.368C98.2725 24.168 97.9898 24.856 97.5311 25.432C97.0725 25.9973 96.4591 26.4347 95.6911 26.744C94.9338 27.0427 94.0485 27.192 93.0351 27.192C92.1605 27.192 91.3551 27.0747 90.6191 26.84C89.8938 26.6053 89.2591 26.264 88.7151 25.816C88.1818 25.3573 87.7658 24.7973 87.4671 24.136C87.1791 23.464 87.0351 22.696 87.0351 21.832C87.0351 20.9573 87.1791 20.1893 87.4671 19.528C87.7658 18.8667 88.1818 18.3067 88.7151 17.848C89.2591 17.3787 89.8938 17.0267 90.6191 16.792C91.3551 16.5573 92.1605 16.44 93.0351 16.44C94.0591 16.44 94.9498 16.5947 95.7071 16.904C96.4751 17.2133 97.0885 17.656 97.5471 18.232C98.0058 18.808 98.2831 19.5013 98.3791 20.312H96.6191C96.4698 19.832 96.2351 19.4267 95.9151 19.096C95.5951 18.7547 95.1898 18.4933 94.6991 18.312C94.2191 18.1307 93.6645 18.04 93.0351 18.04C92.2458 18.04 91.5365 18.1893 90.9071 18.488C90.2778 18.776 89.7818 19.2027 89.4191 19.768C89.0671 20.3227 88.8911 21.0107 88.8911 21.832C88.8911 22.6427 89.0671 23.3307 89.4191 23.896C89.7818 24.4507 90.2778 24.872 90.9071 25.16C91.5365 25.448 92.2458 25.592 93.0351 25.592C93.6645 25.592 94.2191 25.5067 94.6991 25.336C95.1791 25.1547 95.5791 24.8987 95.8991 24.568C96.2191 24.2267 96.4538 23.8267 96.6031 23.368H98.3791ZM100.771 16.632H102.595V27H100.771V16.632ZM114.973 25.112L114.429 25.32V16.632H116.237V27H114.429L106.653 18.568L107.213 18.36V27H105.389V16.632H107.213L114.973 25.112ZM117.772 16.632H127.724V18.2H117.772V16.632ZM121.852 18.008H123.66V27H121.852V18.008ZM129.568 16.632H131.392V27H129.568V16.632ZM136.01 16.632V25.432H142.474V27H134.186V16.632H136.01ZM146.306 16.632V25.432H152.77V27H144.482V16.632H146.306ZM156.219 24.568V23.016H162.395V24.568H156.219ZM153.819 27L158.347 16.632H160.299L164.859 27H162.891L158.923 17.64H159.723L155.771 27H153.819ZM167.94 23.528V22.008H172.132C172.719 22.008 173.188 21.8373 173.54 21.496C173.903 21.1547 174.084 20.696 174.084 20.12C174.084 19.5227 173.903 19.0587 173.54 18.728C173.188 18.3867 172.719 18.216 172.132 18.216H168.196V27H166.372V16.632H172.004C172.548 16.632 173.055 16.7067 173.524 16.856C173.994 16.9947 174.404 17.208 174.756 17.496C175.119 17.784 175.396 18.1467 175.588 18.584C175.791 19.0107 175.892 19.5227 175.892 20.12C175.892 20.7067 175.791 21.2187 175.588 21.656C175.396 22.0827 175.119 22.4347 174.756 22.712C174.404 22.9893 173.994 23.1973 173.524 23.336C173.055 23.464 172.548 23.528 172.004 23.528H167.94ZM177.889 27V16.632H184.017C184.785 16.632 185.451 16.744 186.017 16.968C186.582 17.1813 187.019 17.5173 187.329 17.976C187.638 18.424 187.793 19 187.793 19.704C187.793 20.1733 187.713 20.5787 187.553 20.92C187.393 21.2507 187.169 21.5227 186.881 21.736C186.593 21.9493 186.257 22.1147 185.873 22.232C185.499 22.3493 185.099 22.424 184.673 22.456L184.513 22.344C185.195 22.3547 185.761 22.4187 186.209 22.536C186.657 22.6427 186.998 22.8507 187.233 23.16C187.467 23.4587 187.585 23.9013 187.585 24.488V27H185.777V24.584C185.777 24.1787 185.702 23.864 185.553 23.64C185.414 23.4053 185.169 23.2453 184.817 23.16C184.475 23.064 183.985 23.016 183.345 23.016H179.713V27H177.889ZM179.713 21.528H184.017C184.657 21.528 185.142 21.368 185.473 21.048C185.803 20.728 185.969 20.3067 185.969 19.784C185.969 19.2827 185.803 18.8987 185.473 18.632C185.142 18.3547 184.657 18.216 184.017 18.216H179.713V21.528ZM195.614 27.192C194.398 27.192 193.336 26.9733 192.43 26.536C191.534 26.0987 190.835 25.48 190.334 24.68C189.843 23.88 189.598 22.9253 189.598 21.816C189.598 20.7067 189.843 19.752 190.334 18.952C190.835 18.1413 191.534 17.5227 192.43 17.096C193.336 16.6587 194.398 16.44 195.614 16.44C196.84 16.44 197.902 16.6587 198.798 17.096C199.694 17.5227 200.387 18.1413 200.878 18.952C201.379 19.752 201.63 20.7067 201.63 21.816C201.63 22.9253 201.379 23.88 200.878 24.68C200.387 25.48 199.694 26.0987 198.798 26.536C197.902 26.9733 196.84 27.192 195.614 27.192ZM195.614 25.592C196.424 25.592 197.139 25.4533 197.758 25.176C198.376 24.8987 198.862 24.4827 199.214 23.928C199.576 23.3627 199.758 22.6587 199.758 21.816C199.758 20.984 199.576 20.2907 199.214 19.736C198.862 19.1707 198.376 18.7493 197.758 18.472C197.139 18.184 196.424 18.04 195.614 18.04C194.814 18.04 194.099 18.184 193.47 18.472C192.84 18.7493 192.344 19.1707 191.982 19.736C191.619 20.2907 191.438 20.984 191.438 21.816C191.438 22.6587 191.619 23.3627 191.982 23.928C192.344 24.4827 192.84 24.8987 193.47 25.176C194.099 25.4533 194.814 25.592 195.614 25.592Z" fill="white"/>
<circle cx="21.4459" cy="21.4459" r="19.9459" fill="url(#paint0_linear_464_10)" stroke="white" stroke-width="3"/>
<path d="M68 21.4459C68 31.6334 59.7415 39.8919 49.5541 39.8919C39.3667 39.8919 31.1082 31.6334 31.1082 21.4459C31.1082 11.2585 39.3667 3 49.5541 3C59.7415 3 68 11.2585 68 21.4459Z" fill="url(#paint1_linear_464_10)"/>
<path d="M49.5541 41.3919C60.5699 41.3919 69.5 32.4618 69.5 21.4459C69.5 10.4301 60.5699 1.5 49.5541 1.5C38.5383 1.5 29.6082 10.4301 29.6082 21.4459C29.6082 32.4618 38.5383 41.3919 49.5541 41.3919Z" stroke="white" stroke-opacity="0.86" stroke-width="3"/>
<defs>
<linearGradient id="paint0_linear_464_10" x1="21.4459" y1="3" x2="21.4459" y2="39.8919" gradientUnits="userSpaceOnUse">
<stop stop-color="#4F60E8"/>
<stop offset="1" stop-color="#21D6A2"/>
</linearGradient>
<linearGradient id="paint1_linear_464_10" x1="49.5541" y1="3" x2="49.5541" y2="39.8919" gradientUnits="userSpaceOnUse">
<stop stop-color="#4F60E8"/>
<stop offset="1" stop-color="#21D6A2"/>
</linearGradient>
</defs>
</svg>
