<svg width="196" height="45" viewBox="0 0 196 45" fill="none" xmlns="http://www.w3.org/2000/svg">
<path d="M59.5242 29.342C58.3362 29.342 57.3342 29.156 56.5182 28.784C55.7022 28.4 55.0842 27.884 54.6642 27.236C54.2442 26.576 54.0342 25.82 54.0342 24.968H56.8962C56.8962 25.304 56.9862 25.616 57.1662 25.904C57.3582 26.192 57.6462 26.426 58.0302 26.606C58.4142 26.774 58.9122 26.858 59.5242 26.858C60.0762 26.858 60.5382 26.786 60.9102 26.642C61.2822 26.498 61.5642 26.3 61.7562 26.048C61.9482 25.784 62.0442 25.484 62.0442 25.148C62.0442 24.728 61.8642 24.398 61.5042 24.158C61.1442 23.906 60.5622 23.744 59.7582 23.672L58.7682 23.582C57.4602 23.474 56.4162 23.066 55.6362 22.358C54.8562 21.65 54.4662 20.714 54.4662 19.55C54.4662 18.71 54.6642 17.984 55.0602 17.372C55.4682 16.76 56.0322 16.292 56.7522 15.968C57.4722 15.632 58.3242 15.464 59.3082 15.464C60.3402 15.464 61.2222 15.644 61.9542 16.004C62.6982 16.352 63.2682 16.85 63.6642 17.498C64.0602 18.134 64.2582 18.884 64.2582 19.748H61.3782C61.3782 19.424 61.3002 19.13 61.1442 18.866C60.9882 18.59 60.7542 18.368 60.4422 18.2C60.1422 18.032 59.7642 17.948 59.3082 17.948C58.8762 17.948 58.5102 18.02 58.2102 18.164C57.9222 18.308 57.7062 18.506 57.5622 18.758C57.4182 18.998 57.3462 19.262 57.3462 19.55C57.3462 19.922 57.4782 20.246 57.7422 20.522C58.0062 20.798 58.4382 20.96 59.0382 21.008L60.0462 21.098C61.0062 21.182 61.8522 21.392 62.5842 21.728C63.3162 22.052 63.8862 22.502 64.2942 23.078C64.7142 23.642 64.9242 24.332 64.9242 25.148C64.9242 25.988 64.7022 26.726 64.2582 27.362C63.8262 27.986 63.2082 28.472 62.4042 28.82C61.6002 29.168 60.6402 29.342 59.5242 29.342ZM72.9881 29.342C71.8001 29.342 70.7801 29.138 69.9281 28.73C69.0761 28.31 68.3801 27.764 67.8401 27.092C67.3001 26.408 66.8981 25.676 66.6341 24.896C66.3821 24.104 66.2561 23.336 66.2561 22.592V22.196C66.2561 21.38 66.3881 20.576 66.6521 19.784C66.9161 18.98 67.3181 18.254 67.8581 17.606C68.4101 16.958 69.1001 16.442 69.9281 16.058C70.7681 15.662 71.7581 15.464 72.8981 15.464C74.0861 15.464 75.1361 15.686 76.0481 16.13C76.9601 16.574 77.6861 17.192 78.2261 17.984C78.7781 18.764 79.1021 19.682 79.1981 20.738H76.2281C76.1441 20.21 75.9521 19.76 75.6521 19.388C75.3521 19.016 74.9621 18.728 74.4821 18.524C74.0141 18.32 73.4861 18.218 72.8981 18.218C72.3101 18.218 71.7881 18.32 71.3321 18.524C70.8761 18.728 70.4921 19.016 70.1801 19.388C69.8801 19.76 69.6461 20.204 69.4781 20.72C69.3221 21.224 69.2441 21.788 69.2441 22.412C69.2441 23.024 69.3221 23.588 69.4781 24.104C69.6461 24.608 69.8861 25.052 70.1981 25.436C70.5221 25.808 70.9181 26.096 71.3861 26.3C71.8541 26.492 72.3881 26.588 72.9881 26.588C73.9001 26.588 74.6681 26.366 75.2921 25.922C75.9281 25.478 76.3121 24.866 76.4441 24.086H79.3961C79.2881 25.046 78.9641 25.928 78.4241 26.732C77.8961 27.524 77.1701 28.16 76.2461 28.64C75.3341 29.108 74.2481 29.342 72.9881 29.342ZM81.3905 29V15.86H84.3425V29H81.3905ZM87.3311 29V15.86H92.1731L97.1231 26.606H97.7351L97.3751 26.93V15.86H100.147V29H95.2691L90.3191 18.254H89.7071L90.0671 17.93V29H87.3311ZM105.709 29V18.074H108.661V29H105.709ZM102.019 18.434V15.86H112.369V18.434H102.019ZM114.262 29V15.86H117.214V29H114.262ZM120.202 29V15.86H123.154V29H120.202ZM122.794 29V26.408H128.302V29H122.794ZM130.239 29V15.86H133.191V29H130.239ZM132.831 29V26.408H138.339V29H132.831ZM139.14 29L143.478 15.86H148.248L152.748 29H149.688L146.052 17.894L146.988 18.272H144.666L145.638 17.894L142.092 29H139.14ZM142.434 25.742L143.334 23.294H148.482L149.4 25.742H142.434ZM157.054 25.238V22.682H159.412C159.868 22.682 160.258 22.592 160.582 22.412C160.918 22.232 161.176 21.98 161.356 21.656C161.536 21.32 161.626 20.936 161.626 20.504C161.626 20.048 161.536 19.658 161.356 19.334C161.176 18.998 160.918 18.746 160.582 18.578C160.258 18.398 159.868 18.308 159.412 18.308H157.054V15.752H159.268C160.384 15.752 161.338 15.938 162.13 16.31C162.934 16.682 163.546 17.21 163.966 17.894C164.398 18.578 164.614 19.4 164.614 20.36V20.648C164.614 21.584 164.398 22.4 163.966 23.096C163.546 23.78 162.934 24.308 162.13 24.68C161.338 25.052 160.384 25.238 159.268 25.238H157.054ZM154.462 29V15.752H157.414V29H154.462ZM166.468 29V15.752H169.42V29H166.468ZM174.442 29L170.59 23.348H173.83L177.862 29H174.442ZM168.628 24.788V22.466H171.868C172.3 22.466 172.672 22.382 172.984 22.214C173.308 22.034 173.554 21.788 173.722 21.476C173.902 21.152 173.992 20.78 173.992 20.36C173.992 19.94 173.902 19.574 173.722 19.262C173.554 18.938 173.308 18.692 172.984 18.524C172.672 18.344 172.3 18.254 171.868 18.254H168.628V15.752H171.634C172.726 15.752 173.674 15.92 174.478 16.256C175.282 16.58 175.9 17.066 176.332 17.714C176.764 18.362 176.98 19.178 176.98 20.162V20.45C176.98 21.422 176.758 22.232 176.314 22.88C175.882 23.516 175.264 23.996 174.46 24.32C173.668 24.632 172.726 24.788 171.634 24.788H168.628ZM185.758 29.342C184.57 29.342 183.532 29.138 182.644 28.73C181.768 28.31 181.042 27.764 180.466 27.092C179.89 26.408 179.458 25.67 179.17 24.878C178.894 24.086 178.756 23.324 178.756 22.592V22.196C178.756 21.38 178.9 20.576 179.188 19.784C179.488 18.98 179.932 18.254 180.52 17.606C181.108 16.958 181.84 16.442 182.716 16.058C183.592 15.662 184.606 15.464 185.758 15.464C186.91 15.464 187.924 15.662 188.8 16.058C189.676 16.442 190.408 16.958 190.996 17.606C191.584 18.254 192.028 18.98 192.328 19.784C192.628 20.576 192.778 21.38 192.778 22.196V22.592C192.778 23.324 192.634 24.086 192.346 24.878C192.058 25.67 191.626 26.408 191.05 27.092C190.474 27.764 189.742 28.31 188.854 28.73C187.978 29.138 186.946 29.342 185.758 29.342ZM185.758 26.588C186.382 26.588 186.94 26.48 187.432 26.264C187.936 26.048 188.362 25.748 188.71 25.364C189.07 24.98 189.34 24.536 189.52 24.032C189.7 23.528 189.79 22.988 189.79 22.412C189.79 21.8 189.694 21.242 189.502 20.738C189.322 20.222 189.052 19.778 188.692 19.406C188.344 19.022 187.924 18.728 187.432 18.524C186.94 18.32 186.382 18.218 185.758 18.218C185.134 18.218 184.576 18.32 184.084 18.524C183.592 18.728 183.166 19.022 182.806 19.406C182.458 19.778 182.194 20.222 182.014 20.738C181.834 21.242 181.744 21.8 181.744 22.412C181.744 22.988 181.834 23.528 182.014 24.032C182.194 24.536 182.458 24.98 182.806 25.364C183.166 25.748 183.592 26.048 184.084 26.264C184.576 26.48 185.134 26.588 185.758 26.588Z" fill="white"/>
<g clip-path="url(#clip0_64_49)">
<path d="M16.2486 13.3938L4.02704 25.4874C4.22012 26.671 4.52102 27.8173 4.92723 28.914L16.7426 17.2224C16.1885 16.019 16.023 14.6791 16.2486 13.3938Z" fill="url(#paint0_linear_64_49)"/>
<path d="M18.9267 10.7438C16.8254 12.8231 16.8254 16.205 18.9267 18.2843L28.543 27.7999C29.4407 28.6882 29.4407 30.1348 28.543 31.0231C27.6453 31.9114 26.1834 31.9114 25.2857 31.0231L14.8996 20.7482L12.7181 22.9069L23.1042 33.1842C25.2055 35.2635 28.6232 35.2635 30.7245 33.1842C32.8258 31.105 32.8258 27.723 30.7245 25.6437L21.1082 16.1256C20.2105 15.2373 20.2105 13.7908 21.1082 12.9025C22.0059 12.0142 23.4678 12.0142 24.3655 12.9025L40.5489 28.9165C40.9551 27.8173 41.256 26.671 41.4491 25.4899L26.547 10.7438C24.4457 8.6645 21.028 8.6645 18.9267 10.7438Z" fill="url(#paint1_linear_64_49)"/>
<path d="M22.7381 45C10.2005 45 0 34.9063 0 22.5C0 10.0937 10.2005 0 22.7381 0C35.2756 0 45.4762 10.0937 45.4762 22.5C45.4762 34.9063 35.2756 45 22.7381 45ZM22.7381 2.57306C11.6348 2.57306 2.60029 11.513 2.60029 22.5C2.60029 33.487 11.6348 42.4269 22.7381 42.4269C33.8413 42.4269 42.8759 33.487 42.8759 22.5C42.8759 11.513 33.8413 2.57306 22.7381 2.57306Z" fill="url(#paint2_linear_64_49)"/>
</g>
<defs>
<linearGradient id="paint0_linear_64_49" x1="26.0791" y1="5.82504" x2="-7.36358" y2="39.6216" gradientUnits="userSpaceOnUse">
<stop stop-color="#21D6A2"/>
<stop offset="0.9957" stop-color="#4F60E8"/>
</linearGradient>
<linearGradient id="paint1_linear_64_49" x1="12.7183" y1="21.9629" x2="50.9025" y2="21.9629" gradientUnits="userSpaceOnUse">
<stop offset="0.00645955" stop-color="#21D6A2"/>
<stop offset="1" stop-color="#4F60E8"/>
</linearGradient>
<linearGradient id="paint2_linear_64_49" x1="12.8112" y1="14.0135" x2="45.2841" y2="42.3651" gradientUnits="userSpaceOnUse">
<stop stop-color="#4F60E8"/>
<stop offset="0.9957" stop-color="#21D6A2"/>
</linearGradient>
<clipPath id="clip0_64_49">
<rect width="45.4762" height="45" fill="white"/>
</clipPath>
</defs>
</svg>
