<svg width="71" height="43" viewBox="0 0 71 43" fill="none" xmlns="http://www.w3.org/2000/svg">
<circle cx="21.4459" cy="21.4459" r="19.9459" fill="url(#paint0_linear_464_3)" stroke="white" stroke-width="3"/>
<path d="M68 21.4459C68 31.6334 59.7415 39.8919 49.5541 39.8919C39.3667 39.8919 31.1082 31.6334 31.1082 21.4459C31.1082 11.2585 39.3667 3 49.5541 3C59.7415 3 68 11.2585 68 21.4459Z" fill="url(#paint1_linear_464_3)"/>
<path d="M49.5541 41.3919C60.5699 41.3919 69.5 32.4618 69.5 21.4459C69.5 10.4301 60.5699 1.5 49.5541 1.5C38.5383 1.5 29.6082 10.4301 29.6082 21.4459C29.6082 32.4618 38.5383 41.3919 49.5541 41.3919Z" stroke="white" stroke-opacity="0.86" stroke-width="3"/>
<defs>
<linearGradient id="paint0_linear_464_3" x1="21.4459" y1="3" x2="21.4459" y2="39.8919" gradientUnits="userSpaceOnUse">
<stop stop-color="#4F60E8"/>
<stop offset="1" stop-color="#21D6A2"/>
</linearGradient>
<linearGradient id="paint1_linear_464_3" x1="49.5541" y1="3" x2="49.5541" y2="39.8919" gradientUnits="userSpaceOnUse">
<stop stop-color="#4F60E8"/>
<stop offset="1" stop-color="#21D6A2"/>
</linearGradient>
</defs>
</svg>
