<svg width="24" height="24" viewBox="0 0 24 24" fill="none" xmlns="http://www.w3.org/2000/svg">
<g clip-path="url(#clip0_252_614)">
<path d="M23.0001 11C22.7348 11 22.4805 10.8946 22.2929 10.7071C22.1054 10.5196 22.0001 10.2652 22.0001 9.99999C21.9979 7.87891 21.1544 5.84531 19.6546 4.34547C18.1547 2.84564 16.1211 2.00211 14.0001 1.99999C13.7348 1.99999 13.4805 1.89463 13.2929 1.7071C13.1054 1.51956 13.0001 1.26521 13.0001 0.99999C13.0001 0.734773 13.1054 0.480419 13.2929 0.292883C13.4805 0.105347 13.7348 -1.03541e-05 14.0001 -1.03541e-05C16.6513 0.00290124 19.1932 1.0574 21.0679 2.93214C22.9426 4.80687 23.9971 7.34872 24.0001 9.99999C24.0001 10.2652 23.8947 10.5196 23.7072 10.7071C23.5196 10.8946 23.2653 11 23.0001 11ZM20.0001 9.99999C20.0001 8.40869 19.3679 6.88257 18.2427 5.75735C17.1175 4.63213 15.5914 3.99999 14.0001 3.99999C13.7348 3.99999 13.4805 4.10535 13.2929 4.29288C13.1054 4.48042 13.0001 4.73477 13.0001 4.99999C13.0001 5.26521 13.1054 5.51956 13.2929 5.7071C13.4805 5.89463 13.7348 5.99999 14.0001 5.99999C15.0609 5.99999 16.0783 6.42142 16.8285 7.17156C17.5786 7.92171 18.0001 8.93912 18.0001 9.99999C18.0001 10.2652 18.1054 10.5196 18.2929 10.7071C18.4805 10.8946 18.7348 11 19.0001 11C19.2653 11 19.5196 10.8946 19.7072 10.7071C19.8947 10.5196 20.0001 10.2652 20.0001 9.99999ZM22.1831 22.164L23.0931 21.115C23.6723 20.5339 23.9975 19.7469 23.9975 18.9265C23.9975 18.106 23.6723 17.3191 23.0931 16.738C23.0621 16.707 20.6561 14.856 20.6561 14.856C20.0786 14.3063 19.3116 14.0002 18.5143 14.0014C17.7171 14.0025 16.951 14.3107 16.3751 14.862L14.4691 16.468C12.9132 15.8241 11.4999 14.8792 10.3103 13.6875C9.12074 12.4958 8.17827 11.0809 7.53705 9.52399L9.13705 7.62399C9.68877 7.04816 9.99735 6.28187 9.99865 5.48439C9.99996 4.68692 9.69388 3.91962 9.14405 3.34199C9.14405 3.34199 7.29105 0.93899 7.26005 0.90799C6.6895 0.333738 5.91593 0.00701166 5.10648 -0.00159557C4.29702 -0.0102028 3.51668 0.3 2.93405 0.86199L1.78405 1.86199C-5.00995 9.74399 9.62005 24.261 17.7621 24C18.5842 24.0048 19.399 23.8447 20.1584 23.5294C20.9177 23.2141 21.6061 22.7498 22.1831 22.164Z" fill="white"/>
</g>
<defs>
<clipPath id="clip0_252_614">
<rect width="24" height="24" fill="white"/>
</clipPath>
</defs>
</svg>
