<svg width="119" height="119" viewBox="0 0 119 119" fill="none" xmlns="http://www.w3.org/2000/svg">
<g clip-path="url(#clip0_252_496)">
<path d="M96.75 13.13C96.26 12.73 95.76 12.35 95.26 11.97L11.97 95.26C12.35 95.76 12.74 96.26 13.13 96.75L96.75 13.13Z" fill="white"/>
<path d="M76.4001 2.44012C75.7101 2.24012 75.0101 2.05012 74.3201 1.87012L1.87012 74.3201C2.05012 75.0201 2.24012 75.7101 2.44012 76.4001L76.4001 2.44012Z" fill="white"/>
<path d="M90.7001 8.8401C90.1501 8.5001 89.5901 8.1701 89.0401 7.8501L7.8501 89.0301C8.1701 89.5901 8.5001 90.1401 8.8401 90.6901L90.7001 8.8401Z" fill="white"/>
<path d="M83.94 5.24995C83.33 4.96995 82.71 4.69995 82.09 4.44995L4.44995 82.09C4.70995 82.71 4.96995 83.33 5.24995 83.94L83.94 5.24995Z" fill="white"/>
<path d="M67.91 0.590049C67.12 0.480049 66.33 0.380049 65.54 0.300049L0.300049 65.54C0.380049 66.33 0.480049 67.12 0.590049 67.91L67.91 0.590049Z" fill="white"/>
<path d="M101.5 17.4C101.28 17.18 101.05 16.96 100.83 16.75L16.75 100.83C16.97 101.05 17.18 101.28 17.4 101.5C17.62 101.72 17.85 101.94 18.07 102.15L102.15 18.07C101.94 17.85 101.72 17.62 101.5 17.4Z" fill="white"/>
<path d="M58.15 0C57.22 0.02 56.3 0.06 55.37 0.13L0.13 55.37C0.06 56.3 0.02 57.22 0 58.15L58.15 0Z" fill="white"/>
<path d="M1.43994 46.3699L46.3699 1.43994C45.1699 1.70994 43.9799 2.01994 42.7999 2.35994L2.35994 42.7899C2.00994 43.9799 1.70994 45.1699 1.43994 46.3699Z" fill="white"/>
<path d="M118.78 63.53C118.84 62.6 118.89 61.68 118.91 60.75L60.75 118.9C61.68 118.88 62.6 118.84 63.53 118.77L118.78 63.53Z" fill="white"/>
<path d="M118.6 53.36C118.52 52.57 118.42 51.78 118.31 50.99L50.99 118.31C51.78 118.42 52.57 118.52 53.36 118.6L118.6 53.36Z" fill="white"/>
<path d="M29.25 8.20996C25.02 10.71 21.04 13.77 17.4 17.4C13.77 21.03 10.7 25.02 8.20996 29.25L29.25 8.20996Z" fill="white"/>
<path d="M116.55 76.11C116.89 74.93 117.2 73.74 117.47 72.54L72.54 117.47C73.74 117.2 74.93 116.89 76.11 116.55L116.55 76.11Z" fill="white"/>
<path d="M89.6599 110.69C93.8899 108.19 97.8699 105.13 101.51 101.5C105.14 97.8699 108.21 93.8799 110.7 89.6499L89.6599 110.69Z" fill="white"/>
<path d="M111.05 29.87C110.73 29.31 110.4 28.76 110.06 28.21L28.21 110.06C28.76 110.4 29.32 110.73 29.87 111.05L111.05 29.87Z" fill="white"/>
<path d="M106.93 23.6399C106.55 23.1399 106.16 22.6399 105.77 22.1499L22.1499 105.77C22.6399 106.17 23.1399 106.55 23.6399 106.93L106.93 23.6399Z" fill="white"/>
<path d="M117.04 44.58C116.86 43.88 116.67 43.19 116.47 42.5L42.5 116.46C43.19 116.66 43.88 116.85 44.58 117.03L117.04 44.58Z" fill="white"/>
<path d="M114.46 36.81C114.2 36.19 113.94 35.57 113.66 34.96L34.97 113.65C35.58 113.93 36.2 114.2 36.82 114.45L114.46 36.81Z" fill="white"/>
</g>
<defs>
<clipPath id="clip0_252_496">
<rect width="118.9" height="118.9" fill="white"/>
</clipPath>
</defs>
</svg>
