<svg width="141" height="82" viewBox="0 0 141 82" fill="none" xmlns="http://www.w3.org/2000/svg">
<path d="M6.048 77.342C4.86 77.342 3.858 77.156 3.042 76.784C2.226 76.4 1.608 75.884 1.188 75.236C0.768 74.576 0.558 73.82 0.558 72.968H3.42C3.42 73.304 3.51 73.616 3.69 73.904C3.882 74.192 4.17 74.426 4.554 74.606C4.938 74.774 5.436 74.858 6.048 74.858C6.6 74.858 7.062 74.786 7.434 74.642C7.806 74.498 8.088 74.3 8.28 74.048C8.472 73.784 8.568 73.484 8.568 73.148C8.568 72.728 8.388 72.398 8.028 72.158C7.668 71.906 7.086 71.744 6.282 71.672L5.292 71.582C3.984 71.474 2.94 71.066 2.16 70.358C1.38 69.65 0.99 68.714 0.99 67.55C0.99 66.71 1.188 65.984 1.584 65.372C1.992 64.76 2.556 64.292 3.276 63.968C3.996 63.632 4.848 63.464 5.832 63.464C6.864 63.464 7.746 63.644 8.478 64.004C9.222 64.352 9.792 64.85 10.188 65.498C10.584 66.134 10.782 66.884 10.782 67.748H7.902C7.902 67.424 7.824 67.13 7.668 66.866C7.512 66.59 7.278 66.368 6.966 66.2C6.666 66.032 6.288 65.948 5.832 65.948C5.4 65.948 5.034 66.02 4.734 66.164C4.446 66.308 4.23 66.506 4.086 66.758C3.942 66.998 3.87 67.262 3.87 67.55C3.87 67.922 4.002 68.246 4.266 68.522C4.53 68.798 4.962 68.96 5.562 69.008L6.57 69.098C7.53 69.182 8.376 69.392 9.108 69.728C9.84 70.052 10.41 70.502 10.818 71.078C11.238 71.642 11.448 72.332 11.448 73.148C11.448 73.988 11.226 74.726 10.782 75.362C10.35 75.986 9.732 76.472 8.928 76.82C8.124 77.168 7.164 77.342 6.048 77.342ZM19.5119 77.342C18.3239 77.342 17.3039 77.138 16.4519 76.73C15.5999 76.31 14.9039 75.764 14.3639 75.092C13.8239 74.408 13.4219 73.676 13.1579 72.896C12.9059 72.104 12.7799 71.336 12.7799 70.592V70.196C12.7799 69.38 12.9119 68.576 13.1759 67.784C13.4399 66.98 13.8419 66.254 14.3819 65.606C14.9339 64.958 15.6239 64.442 16.4519 64.058C17.2919 63.662 18.2819 63.464 19.4219 63.464C20.6099 63.464 21.6599 63.686 22.5719 64.13C23.4839 64.574 24.2099 65.192 24.7499 65.984C25.3019 66.764 25.6259 67.682 25.7219 68.738H22.7519C22.6679 68.21 22.4759 67.76 22.1759 67.388C21.8759 67.016 21.4859 66.728 21.0059 66.524C20.5379 66.32 20.0099 66.218 19.4219 66.218C18.8339 66.218 18.3119 66.32 17.8559 66.524C17.3999 66.728 17.0159 67.016 16.7039 67.388C16.4039 67.76 16.1699 68.204 16.0019 68.72C15.8459 69.224 15.7679 69.788 15.7679 70.412C15.7679 71.024 15.8459 71.588 16.0019 72.104C16.1699 72.608 16.4099 73.052 16.7219 73.436C17.0459 73.808 17.4419 74.096 17.9099 74.3C18.3779 74.492 18.9119 74.588 19.5119 74.588C20.4239 74.588 21.1919 74.366 21.8159 73.922C22.4519 73.478 22.8359 72.866 22.9679 72.086H25.9199C25.8119 73.046 25.4879 73.928 24.9479 74.732C24.4199 75.524 23.6939 76.16 22.7699 76.64C21.8579 77.108 20.7719 77.342 19.5119 77.342ZM27.9143 77V63.86H30.8663V77H27.9143ZM33.8549 77V63.86H38.6969L43.6469 74.606H44.2589L43.8989 74.93V63.86H46.6709V77H41.7929L36.8429 66.254H36.2309L36.5909 65.93V77H33.8549ZM52.2325 77V66.074H55.1845V77H52.2325ZM48.5425 66.434V63.86H58.8925V66.434H48.5425ZM60.7854 77V63.86H63.7374V77H60.7854ZM66.726 77V63.86H69.678V77H66.726ZM69.318 77V74.408H74.826V77H69.318ZM76.7631 77V63.86H79.7151V77H76.7631ZM79.3551 77V74.408H84.8631V77H79.3551ZM85.6637 77L90.0017 63.86H94.7717L99.2717 77H96.2117L92.5757 65.894L93.5117 66.272H91.1897L92.1617 65.894L88.6157 77H85.6637ZM88.9577 73.742L89.8577 71.294H95.0057L95.9237 73.742H88.9577ZM103.578 73.238V70.682H105.936C106.392 70.682 106.782 70.592 107.106 70.412C107.442 70.232 107.7 69.98 107.88 69.656C108.06 69.32 108.15 68.936 108.15 68.504C108.15 68.048 108.06 67.658 107.88 67.334C107.7 66.998 107.442 66.746 107.106 66.578C106.782 66.398 106.392 66.308 105.936 66.308H103.578V63.752H105.792C106.908 63.752 107.862 63.938 108.654 64.31C109.458 64.682 110.07 65.21 110.49 65.894C110.922 66.578 111.138 67.4 111.138 68.36V68.648C111.138 69.584 110.922 70.4 110.49 71.096C110.07 71.78 109.458 72.308 108.654 72.68C107.862 73.052 106.908 73.238 105.792 73.238H103.578ZM100.986 77V63.752H103.938V77H100.986ZM112.992 77V63.752H115.944V77H112.992ZM120.966 77L117.114 71.348H120.354L124.386 77H120.966ZM115.152 72.788V70.466H118.392C118.824 70.466 119.196 70.382 119.508 70.214C119.832 70.034 120.078 69.788 120.246 69.476C120.426 69.152 120.516 68.78 120.516 68.36C120.516 67.94 120.426 67.574 120.246 67.262C120.078 66.938 119.832 66.692 119.508 66.524C119.196 66.344 118.824 66.254 118.392 66.254H115.152V63.752H118.158C119.25 63.752 120.198 63.92 121.002 64.256C121.806 64.58 122.424 65.066 122.856 65.714C123.288 66.362 123.504 67.178 123.504 68.162V68.45C123.504 69.422 123.282 70.232 122.838 70.88C122.406 71.516 121.788 71.996 120.984 72.32C120.192 72.632 119.25 72.788 118.158 72.788H115.152ZM132.282 77.342C131.094 77.342 130.056 77.138 129.168 76.73C128.292 76.31 127.566 75.764 126.99 75.092C126.414 74.408 125.982 73.67 125.694 72.878C125.418 72.086 125.28 71.324 125.28 70.592V70.196C125.28 69.38 125.424 68.576 125.712 67.784C126.012 66.98 126.456 66.254 127.044 65.606C127.632 64.958 128.364 64.442 129.24 64.058C130.116 63.662 131.13 63.464 132.282 63.464C133.434 63.464 134.448 63.662 135.324 64.058C136.2 64.442 136.932 64.958 137.52 65.606C138.108 66.254 138.552 66.98 138.852 67.784C139.152 68.576 139.302 69.38 139.302 70.196V70.592C139.302 71.324 139.158 72.086 138.87 72.878C138.582 73.67 138.15 74.408 137.574 75.092C136.998 75.764 136.266 76.31 135.378 76.73C134.502 77.138 133.47 77.342 132.282 77.342ZM132.282 74.588C132.906 74.588 133.464 74.48 133.956 74.264C134.46 74.048 134.886 73.748 135.234 73.364C135.594 72.98 135.864 72.536 136.044 72.032C136.224 71.528 136.314 70.988 136.314 70.412C136.314 69.8 136.218 69.242 136.026 68.738C135.846 68.222 135.576 67.778 135.216 67.406C134.868 67.022 134.448 66.728 133.956 66.524C133.464 66.32 132.906 66.218 132.282 66.218C131.658 66.218 131.1 66.32 130.608 66.524C130.116 66.728 129.69 67.022 129.33 67.406C128.982 67.778 128.718 68.222 128.538 68.738C128.358 69.242 128.268 69.8 128.268 70.412C128.268 70.988 128.358 71.528 128.538 72.032C128.718 72.536 128.982 72.98 129.33 73.364C129.69 73.748 130.116 74.048 130.608 74.264C131.1 74.48 131.658 74.588 132.282 74.588Z" fill="black"/>
<g clip-path="url(#clip0_64_89)">
<path d="M62.6515 16.3701L47.8704 31.1512C48.1039 32.5978 48.4679 33.9989 48.9591 35.3393L63.2489 21.0495C62.5787 19.5787 62.3786 17.941 62.6515 16.3701Z" fill="url(#paint0_linear_64_89)"/>
<path d="M65.8904 13.1314C63.3491 15.6727 63.3491 19.8062 65.8904 22.3476L77.5206 33.9777C78.6063 35.0634 78.6063 36.8315 77.5206 37.9171C76.4349 39.0028 74.6669 39.0028 73.5812 37.9171L61.02 25.359L58.3816 27.9974L70.9428 40.5586C73.4841 43.0999 77.6176 43.0999 80.159 40.5586C82.7003 38.0172 82.7003 33.8837 80.159 31.3424L68.5288 19.7092C67.4431 18.6235 67.4431 16.8554 68.5288 15.7698C69.6145 14.6841 71.3825 14.6841 72.4682 15.7698L92.0409 35.3424C92.5322 33.999 92.8961 32.5979 93.1296 31.1544L75.1066 13.1314C72.5653 10.59 68.4318 10.59 65.8904 13.1314Z" fill="url(#paint1_linear_64_89)"/>
<path d="M70.5 55C55.3368 55 43 42.6632 43 27.5C43 12.3368 55.3368 0 70.5 0C85.6632 0 98 12.3368 98 27.5C98 42.6632 85.6632 55 70.5 55ZM70.5 3.14485C57.0715 3.14485 46.1449 14.0715 46.1449 27.5C46.1449 40.9285 57.0715 51.8552 70.5 51.8552C83.9285 51.8552 94.8552 40.9285 94.8552 27.5C94.8552 14.0715 83.9285 3.14485 70.5 3.14485Z" fill="url(#paint2_linear_64_89)"/>
</g>
<defs>
<linearGradient id="paint0_linear_64_89" x1="74.5407" y1="7.11941" x2="33.6641" y2="47.9961" gradientUnits="userSpaceOnUse">
<stop stop-color="#21D6A2"/>
<stop offset="0.9957" stop-color="#4F60E8"/>
</linearGradient>
<linearGradient id="paint1_linear_64_89" x1="58.3819" y1="26.8436" x2="104.563" y2="26.8436" gradientUnits="userSpaceOnUse">
<stop offset="0.00645955" stop-color="#21D6A2"/>
<stop offset="1" stop-color="#4F60E8"/>
</linearGradient>
<linearGradient id="paint2_linear_64_89" x1="58.4942" y1="17.1276" x2="98.1248" y2="51.3662" gradientUnits="userSpaceOnUse">
<stop stop-color="#4F60E8"/>
<stop offset="0.9957" stop-color="#21D6A2"/>
</linearGradient>
<clipPath id="clip0_64_89">
<rect width="55" height="55" fill="white" transform="translate(43)"/>
</clipPath>
</defs>
</svg>
