<svg width="159" height="77" viewBox="0 0 159 77" fill="none" xmlns="http://www.w3.org/2000/svg">
<path d="M0.7 67.7H2.92C2.97333 68.1933 3.16667 68.64 3.5 69.04C3.84667 69.4267 4.3 69.7333 4.86 69.96C5.43333 70.1733 6.08667 70.28 6.82 70.28C7.47333 70.28 8.01333 70.2 8.44 70.04C8.86667 69.88 9.18 69.66 9.38 69.38C9.59333 69.0867 9.7 68.7467 9.7 68.36C9.7 67.9733 9.57333 67.6733 9.32 67.46C9.08 67.2333 8.70667 67.0467 8.2 66.9C7.69333 66.74 7.04667 66.5867 6.26 66.44C5.60667 66.32 4.97333 66.16 4.36 65.96C3.74667 65.76 3.19333 65.5067 2.7 65.2C2.22 64.8933 1.84 64.52 1.56 64.08C1.28 63.6267 1.14 63.0933 1.14 62.48C1.14 61.7867 1.33333 61.16 1.72 60.6C2.12 60.04 2.70667 59.6 3.48 59.28C4.25333 58.96 5.19333 58.8 6.3 58.8C7.99333 58.8 9.28667 59.1933 10.18 59.98C11.0733 60.7533 11.5067 61.8067 11.48 63.14H9.3C9.26 62.3 8.95333 61.6933 8.38 61.32C7.80667 60.9467 7.08 60.76 6.2 60.76C5.41333 60.76 4.75333 60.9 4.22 61.18C3.68667 61.46 3.42 61.9133 3.42 62.54C3.42 62.8067 3.48 63.04 3.6 63.24C3.73333 63.4267 3.94667 63.6 4.24 63.76C4.53333 63.9067 4.93333 64.0533 5.44 64.2C5.96 64.3333 6.59333 64.48 7.34 64.64C7.98 64.7467 8.58 64.8933 9.14 65.08C9.7 65.2667 10.1867 65.5 10.6 65.78C11.0267 66.06 11.36 66.42 11.6 66.86C11.84 67.3 11.96 67.84 11.96 68.48C11.96 69.2133 11.7733 69.8667 11.4 70.44C11.0267 71 10.4533 71.4467 9.68 71.78C8.92 72.1 7.93333 72.26 6.72 72.26C5.8 72.26 4.99333 72.1533 4.3 71.94C3.62 71.7133 3.04 71.4267 2.56 71.08C2.08 70.72 1.69333 70.3333 1.4 69.92C1.12 69.5067 0.92 69.1067 0.8 68.72C0.693333 68.32 0.66 67.98 0.7 67.7ZM27.9739 67.46C27.8406 68.46 27.4872 69.32 26.9139 70.04C26.3406 70.7467 25.5739 71.2933 24.6139 71.68C23.6672 72.0533 22.5606 72.24 21.2939 72.24C20.2006 72.24 19.1939 72.0933 18.2739 71.8C17.3672 71.5067 16.5739 71.08 15.8939 70.52C15.2272 69.9467 14.7072 69.2467 14.3339 68.42C13.9739 67.58 13.7939 66.62 13.7939 65.54C13.7939 64.4467 13.9739 63.4867 14.3339 62.66C14.7072 61.8333 15.2272 61.1333 15.8939 60.56C16.5739 59.9733 17.3672 59.5333 18.2739 59.24C19.1939 58.9467 20.2006 58.8 21.2939 58.8C22.5739 58.8 23.6872 58.9933 24.6339 59.38C25.5939 59.7667 26.3606 60.32 26.9339 61.04C27.5072 61.76 27.8539 62.6267 27.9739 63.64H25.7739C25.5872 63.04 25.2939 62.5333 24.8939 62.12C24.4939 61.6933 23.9872 61.3667 23.3739 61.14C22.7739 60.9133 22.0806 60.8 21.2939 60.8C20.3072 60.8 19.4206 60.9867 18.6339 61.36C17.8472 61.72 17.2272 62.2533 16.7739 62.96C16.3339 63.6533 16.1139 64.5133 16.1139 65.54C16.1139 66.5533 16.3339 67.4133 16.7739 68.12C17.2272 68.8133 17.8472 69.34 18.6339 69.7C19.4206 70.06 20.3072 70.24 21.2939 70.24C22.0806 70.24 22.7739 70.1333 23.3739 69.92C23.9739 69.6933 24.4739 69.3733 24.8739 68.96C25.2739 68.5333 25.5672 68.0333 25.7539 67.46H27.9739ZM30.9634 59.04H33.2434V72H30.9634V59.04ZM48.7158 69.64L48.0358 69.9V59.04H50.2958V72H48.0358L38.3158 61.46L39.0158 61.2V72H36.7358V59.04H39.0158L48.7158 69.64ZM52.2155 59.04H64.6555V61H52.2155V59.04ZM57.3155 60.76H59.5755V72H57.3155V60.76ZM66.9595 59.04H69.2395V72H66.9595V59.04ZM75.0119 59.04V70.04H83.0919V72H72.7319V59.04H75.0119ZM87.883 59.04V70.04H95.963V72H85.603V59.04H87.883ZM100.274 68.96V67.02H107.994V68.96H100.274ZM97.2741 72L102.934 59.04H105.374L111.074 72H108.614L103.654 60.3H104.654L99.7141 72H97.2741ZM114.925 67.66V65.76H120.165C120.899 65.76 121.485 65.5467 121.925 65.12C122.379 64.6933 122.605 64.12 122.605 63.4C122.605 62.6533 122.379 62.0733 121.925 61.66C121.485 61.2333 120.899 61.02 120.165 61.02H115.245V72H112.965V59.04H120.005C120.685 59.04 121.319 59.1333 121.905 59.32C122.492 59.4933 123.005 59.76 123.445 60.12C123.899 60.48 124.245 60.9333 124.485 61.48C124.739 62.0133 124.865 62.6533 124.865 63.4C124.865 64.1333 124.739 64.7733 124.485 65.32C124.245 65.8533 123.899 66.2933 123.445 66.64C123.005 66.9867 122.492 67.2467 121.905 67.42C121.319 67.58 120.685 67.66 120.005 67.66H114.925ZM127.361 72V59.04H135.021C135.981 59.04 136.814 59.18 137.521 59.46C138.227 59.7267 138.774 60.1467 139.161 60.72C139.547 61.28 139.741 62 139.741 62.88C139.741 63.4667 139.641 63.9733 139.441 64.4C139.241 64.8133 138.961 65.1533 138.601 65.42C138.241 65.6867 137.821 65.8933 137.341 66.04C136.874 66.1867 136.374 66.28 135.841 66.32L135.641 66.18C136.494 66.1933 137.201 66.2733 137.761 66.42C138.321 66.5533 138.747 66.8133 139.041 67.2C139.334 67.5733 139.481 68.1267 139.481 68.86V72H137.221V68.98C137.221 68.4733 137.127 68.08 136.941 67.8C136.767 67.5067 136.461 67.3067 136.021 67.2C135.594 67.08 134.981 67.02 134.181 67.02H129.641V72H127.361ZM129.641 65.16H135.021C135.821 65.16 136.427 64.96 136.841 64.56C137.254 64.16 137.461 63.6333 137.461 62.98C137.461 62.3533 137.254 61.8733 136.841 61.54C136.427 61.1933 135.821 61.02 135.021 61.02H129.641V65.16ZM149.517 72.24C147.997 72.24 146.67 71.9667 145.537 71.42C144.417 70.8733 143.544 70.1 142.917 69.1C142.304 68.1 141.997 66.9067 141.997 65.52C141.997 64.1333 142.304 62.94 142.917 61.94C143.544 60.9267 144.417 60.1533 145.537 59.62C146.67 59.0733 147.997 58.8 149.517 58.8C151.05 58.8 152.377 59.0733 153.497 59.62C154.617 60.1533 155.484 60.9267 156.097 61.94C156.724 62.94 157.037 64.1333 157.037 65.52C157.037 66.9067 156.724 68.1 156.097 69.1C155.484 70.1 154.617 70.8733 153.497 71.42C152.377 71.9667 151.05 72.24 149.517 72.24ZM149.517 70.24C150.53 70.24 151.424 70.0667 152.197 69.72C152.97 69.3733 153.577 68.8533 154.017 68.16C154.47 67.4533 154.697 66.5733 154.697 65.52C154.697 64.48 154.47 63.6133 154.017 62.92C153.577 62.2133 152.97 61.6867 152.197 61.34C151.424 60.98 150.53 60.8 149.517 60.8C148.517 60.8 147.624 60.98 146.837 61.34C146.05 61.6867 145.43 62.2133 144.977 62.92C144.524 63.6133 144.297 64.48 144.297 65.52C144.297 66.5733 144.524 67.4533 144.977 68.16C145.43 68.8533 146.05 69.3733 146.837 69.72C147.624 70.0667 148.517 70.24 149.517 70.24Z" fill="black"/>
<circle cx="64" cy="24" r="21" fill="url(#paint0_linear_466_11)"/>
<circle cx="96" cy="24" r="22.5" fill="url(#paint1_linear_466_11)" stroke="white" stroke-width="3"/>
<defs>
<linearGradient id="paint0_linear_466_11" x1="64" y1="3" x2="64" y2="45" gradientUnits="userSpaceOnUse">
<stop stop-color="#4F60E8"/>
<stop offset="1" stop-color="#21D6A2"/>
</linearGradient>
<linearGradient id="paint1_linear_466_11" x1="96" y1="3" x2="96" y2="45" gradientUnits="userSpaceOnUse">
<stop stop-color="#4F60E8"/>
<stop offset="1" stop-color="#21D6A2"/>
</linearGradient>
</defs>
</svg>
