<svg width="18" height="18" viewBox="0 0 18 18" fill="none" xmlns="http://www.w3.org/2000/svg">
<path d="M9.00008 17.3333C4.39771 17.3333 0.666748 13.6023 0.666748 8.99996C0.666748 4.39758 4.39771 0.666626 9.00008 0.666626C13.6024 0.666626 17.3334 4.39758 17.3334 8.99996C17.3334 13.6023 13.6024 17.3333 9.00008 17.3333ZM9.00008 15.6666C12.682 15.6666 15.6667 12.6819 15.6667 8.99996C15.6667 5.31806 12.682 2.33329 9.00008 2.33329C5.31818 2.33329 2.33341 5.31806 2.33341 8.99996C2.33341 12.6819 5.31818 15.6666 9.00008 15.6666ZM8.16891 12.3333L4.63341 8.79779L5.81192 7.61921L8.16891 9.97629L12.883 5.26223L14.0615 6.44073L8.16891 12.3333Z" fill="#21D6A2"/>
</svg>
